<svg xmlns="http://www.w3.org/2000/svg" viewBox="0 0 41 45" width="41" height="45">
	<defs>
		<clipPath clipPathUnits="userSpaceOnUse" id="cp1">
			<path d="M-134 -332L826 -332L826 2035L-134 2035Z" />
		</clipPath>
	</defs>
	<style>
		tspan { white-space:pre }
		.shp0 { fill: #ffcbba } 
		.shp1 { fill: #ff4fa9 } 
	</style>
	<g id="welness 1" clip-path="url(#cp1)">
		<g id="block 1">
			<g id="categories">
				<g id="fitness">
					<g id="-e-ic_fitness">
						<path id="Rectangle" class="shp0" d="M2.69,29.25h13.5v-9.56h-13.5z" />
						<path id="Shape" class="shp1" d="M34.36,11.62v21.77h4.71c1.03,0 1.86,0.84 1.86,1.86v3.26c0,1.03 -0.84,1.86 -1.86,1.86h-1.05v2.63c0,1.1 -0.89,1.99 -1.99,1.99h-9.8c-1.1,0 -1.99,-0.89 -1.99,-1.99v-2.63h-1.05c-1.03,0 -1.86,-0.84 -1.86,-1.86v-3.26c0,-1.03 0.83,-1.86 1.86,-1.86h4.71v-21.77h-4.71c-1.03,0 -1.86,-0.84 -1.86,-1.86v-3.26c0,-1.03 0.83,-1.86 1.86,-1.86h1.05v-2.63c0,-1.1 0.89,-1.99 1.99,-1.99h9.8c1.1,0 1.99,0.89 1.99,1.99v2.63h1.05c1.03,0 1.86,0.84 1.86,1.86v3.26c0,1.03 -0.84,1.86 -1.86,1.86zM25.37,4.64h11.53v-2.63c0,-0.48 -0.39,-0.87 -0.86,-0.87h-9.8c-0.48,0 -0.87,0.39 -0.87,0.87zM23.19,10.5h15.88c0.41,0 0.74,-0.33 0.74,-0.74v-3.26c0,-0.41 -0.33,-0.74 -0.74,-0.74h-15.88c-0.41,0 -0.74,0.33 -0.74,0.74v3.26c0,0.41 0.33,0.74 0.74,0.74zM36.9,43.01v-2.63h-11.53v2.63c0,0.48 0.39,0.87 0.87,0.87h9.8c0.48,0 0.86,-0.39 0.86,-0.87zM39.07,34.51h-15.88c-0.41,0 -0.74,0.33 -0.74,0.74v3.26c0,0.41 0.33,0.74 0.74,0.74h15.88c0.41,0 0.74,-0.33 0.74,-0.74v-3.26c0,-0.41 -0.33,-0.74 -0.74,-0.74zM33.24,11.62h-4.21v21.77h4.21z" />
						<path id="Path" class="shp1" d="M4.5,18.01c0.31,0 0.56,-0.25 0.56,-0.56v-1.54c0,-1.31 0.72,-2.52 1.87,-3.16c0.27,-0.15 0.37,-0.49 0.22,-0.76c-0.15,-0.27 -0.49,-0.37 -0.76,-0.22c-1.51,0.83 -2.45,2.42 -2.45,4.14v1.54c0,0.31 0.25,0.56 0.56,0.56z" />
						<path id="Shape" class="shp1" d="M2.12,28.47v-7.99c-0.66,-0.31 -1.12,-0.98 -1.12,-1.76v-2.89c0,-3.05 1.66,-5.86 4.34,-7.33c0.52,-0.29 0.85,-0.85 0.85,-1.45v-1.29c-0.61,-0.11 -1.08,-0.64 -1.08,-1.28v-3.17c0,-0.72 0.59,-1.31 1.31,-1.31h5.94c0.72,0 1.31,0.59 1.31,1.31v3.17c0,0.7 -0.55,1.27 -1.24,1.3v1.02c0,0.71 0.4,1.37 1.04,1.72c2.66,1.48 4.31,4.28 4.31,7.32v2.89c0,0.78 -0.46,1.45 -1.12,1.76v7.99c0.66,0.31 1.12,0.98 1.12,1.76v10.08c0,2.59 -2.11,4.69 -4.69,4.69h-7.37c-2.59,0 -4.69,-2.11 -4.69,-4.69v-10.08c0,-0.78 0.46,-1.45 1.12,-1.76zM3.25,20.67v7.61h12.26v-7.61zM2.12,37.3h14.51v-3.17h-14.51zM16.63,30.23c0,-0.45 -0.37,-0.82 -0.82,-0.82h-12.86c-0.45,0 -0.82,0.37 -0.82,0.82v2.77h14.51zM16.63,40.31v-1.89h-14.51v1.89c0,1.97 1.6,3.57 3.57,3.57h7.37c1.97,0 3.57,-1.6 3.57,-3.57zM6.23,4.47c0,0.1 0.08,0.18 0.18,0.18h5.94c0.1,0 0.18,-0.08 0.18,-0.18v-3.17c0,-0.1 -0.08,-0.18 -0.18,-0.18h-5.94c-0.1,0 -0.18,0.08 -0.18,0.18zM2.12,18.72c0,0.45 0.37,0.82 0.82,0.82h12.86c0.45,0 0.82,-0.37 0.82,-0.82v-2.89c0,-2.63 -1.43,-5.06 -3.73,-6.34c-0.99,-0.55 -1.61,-1.59 -1.61,-2.7v-1.01h-3.97v1.27c0,1.02 -0.55,1.95 -1.43,2.44c-2.32,1.28 -3.76,3.71 -3.76,6.35z" />
					</g>
				</g>
			</g>
		</g>
	</g>
</svg>