<svg xmlns="http://www.w3.org/2000/svg" viewBox="0 0 46 46" width="46" height="46">
	<defs>
		<clipPath clipPathUnits="userSpaceOnUse" id="cp1">
			<path d="M-132 -145L828 -145L828 2222L-132 2222Z" />
		</clipPath>
	</defs>
	<style>
		tspan { white-space:pre }
		.shp0 { fill: #ff4fa9 } 
		.shp1 { fill: #ffcbba } 
	</style>
	<g id="welness 1" clip-path="url(#cp1)">
		<g id="block 1">
			<g id="categories">
				<g id="food">
					<g id="-e-ic_food">
						<path id="Shape" class="shp0" d="M21.31,26.69l-6.36,-11.02c-0.54,-0.93 -0.62,-2.06 -0.21,-3.06c0.4,-1 1.25,-1.75 2.28,-2.05l1.62,-0.47c1.03,-0.3 2.15,-0.1 3.02,0.53c0.87,0.63 1.4,1.63 1.44,2.71l0.43,12.72c0.02,0.54 -0.33,1.02 -0.85,1.17c-0.11,0.03 -0.22,0.05 -0.34,0.05c-0.43,0.01 -0.82,-0.22 -1.03,-0.59zM19.61,11c-0.23,0 -0.46,0.03 -0.68,0.1l-1.62,0.47c-0.73,0.21 -1.32,0.74 -1.6,1.44c-0.28,0.7 -0.23,1.49 0.15,2.15l6.37,11c0.03,0.06 0.1,0.08 0.16,0.06c0.06,-0.02 0.11,-0.08 0.1,-0.14l-0.43,-12.72c-0.05,-1.32 -1.13,-2.37 -2.45,-2.37z" />
						<path id="Path" class="shp0" d="M15.63,15.81l1.49,-0.47c0.19,-0.04 0.33,-0.19 0.38,-0.37c0.05,-0.18 -0.01,-0.38 -0.15,-0.51c-0.14,-0.13 -0.34,-0.17 -0.52,-0.11l-1.49,0.43c-0.29,0.04 -0.49,0.3 -0.45,0.59c0.04,0.29 0.3,0.49 0.59,0.45c0.05,0.01 0.1,0.01 0.14,0z" />
						<path id="Path" class="shp0" d="M20.51,15.99l1.99,-0.57c0.26,-0.09 0.4,-0.37 0.33,-0.63c-0.08,-0.26 -0.35,-0.42 -0.61,-0.36l-1.99,0.57c-0.29,0.04 -0.49,0.3 -0.45,0.59c0.04,0.29 0.3,0.49 0.59,0.45c0.05,-0.01 0.1,-0.02 0.14,-0.04z" />
						<path id="Path" class="shp0" d="M17.61,19l1.49,-0.43c0.19,-0.04 0.33,-0.19 0.38,-0.37c0.05,-0.18 -0.01,-0.38 -0.15,-0.51c-0.14,-0.13 -0.34,-0.17 -0.52,-0.11l-1.48,0.41c-0.29,0.04 -0.49,0.3 -0.45,0.59c0.04,0.29 0.3,0.49 0.59,0.45c0.05,0 0.09,-0.01 0.13,-0.02z" />
						<path id="Path" class="shp0" d="M19.48,21.67l1.49,-0.43c0.19,-0.04 0.33,-0.19 0.38,-0.37c0.05,-0.18 -0.01,-0.38 -0.15,-0.51c-0.14,-0.13 -0.34,-0.17 -0.52,-0.11l-1.49,0.43c-0.29,0.04 -0.49,0.3 -0.45,0.59c0.04,0.29 0.3,0.49 0.59,0.45c0.05,-0.01 0.1,-0.02 0.14,-0.04z" />
						<path id="Shape" class="shp0" d="M18.78,11.11c-0.18,0 -0.34,-0.09 -0.43,-0.24c-0.12,0.19 -0.35,0.29 -0.56,0.23c-0.22,-0.05 -0.38,-0.24 -0.39,-0.47c-0.05,-0.87 -0.12,-1.74 -0.19,-2.56c-0.19,-2.12 -0.44,-3.85 -0.44,-3.87c-0.03,-0.21 0.07,-0.42 0.26,-0.53c0.19,-0.1 0.42,-0.08 0.59,0.06c0.08,0.07 2.02,1.76 2.23,4.1c0.07,1.03 -0.13,2.06 -0.59,2.98c-0.09,0.18 -0.27,0.29 -0.47,0.28zM17.99,5.77c0.07,0.63 0.16,1.39 0.23,2.2c0.06,0.71 0.12,1.45 0.17,2.2c0.33,-0.7 0.47,-1.48 0.42,-2.26c-0.09,-0.77 -0.38,-1.51 -0.82,-2.15z" />
						<path id="Shape" class="shp0" d="M17,11.63c-0.1,0 -0.2,-0.03 -0.28,-0.08c-0.87,-0.55 -1.59,-1.32 -2.07,-2.23c-1.03,-2.09 -0.31,-4.56 -0.27,-4.66c0.06,-0.21 0.25,-0.35 0.47,-0.36c0.22,-0.02 0.43,0.1 0.52,0.31c0,0 0.72,1.62 1.68,3.52c0.37,0.72 0.76,1.47 1.17,2.23c0.1,0.19 0.08,0.43 -0.07,0.59c-0.14,0.16 -0.37,0.22 -0.58,0.14c0.01,0.14 -0.04,0.28 -0.14,0.39c-0.1,0.1 -0.23,0.16 -0.38,0.16zM15.55,8.85c0.37,0.69 0.9,1.27 1.55,1.7c-0.36,-0.66 -0.7,-1.32 -1.03,-1.96c-0.35,-0.72 -0.7,-1.41 -0.97,-1.98c-0.03,0.77 0.12,1.54 0.45,2.24z" />
						<path id="Shape" class="shp1" d="M11.18,13.32c0.1,-0.13 2.36,-3.34 1.52,-6.4v0c-0.84,-3.06 -4.43,-4.66 -4.58,-4.72c-0.22,-0.1 -0.48,-0.03 -0.63,0.17c-0.1,0.11 -2.36,3.32 -1.52,6.38c0.84,3.06 4.43,4.66 4.58,4.72c0.07,0.03 0.14,0.04 0.21,0.04c0.16,0.01 0.32,-0.06 0.42,-0.19z" />
						<path id="Shape" class="shp0" d="M10.76,13.5c-0.07,0 -0.14,-0.01 -0.21,-0.04c-0.15,-0.07 -3.74,-1.66 -4.58,-4.72c-0.84,-3.06 1.42,-6.27 1.52,-6.38c0.14,-0.2 0.4,-0.27 0.63,-0.17c0.15,0.07 3.74,1.66 4.58,4.72c0.84,3.06 -1.42,6.27 -1.52,6.4c-0.1,0.12 -0.26,0.19 -0.42,0.19zM8.1,3.31c-0.52,0.86 -1.69,3.1 -1.13,5.17c0.56,2.07 2.72,3.38 3.62,3.85c0.52,-0.87 1.69,-3.1 1.13,-5.17c-0.57,-2.05 -2.73,-3.38 -3.62,-3.85z" />
						<path id="Path" class="shp0" d="M13.58,17.41c0.09,-0.17 0.08,-0.37 -0.03,-0.53l-0.35,-0.52c-1.92,-2.75 -3.32,-5.83 -4.14,-9.08l-0.15,-0.59c-0.05,-0.18 -0.18,-0.32 -0.36,-0.37c-0.18,-0.05 -0.37,0 -0.5,0.13c-0.13,0.13 -0.19,0.32 -0.14,0.5l0.15,0.59c0.85,3.37 2.3,6.56 4.29,9.41l0.35,0.52c0.1,0.14 0.25,0.22 0.42,0.22c0.19,0 0.37,-0.11 0.46,-0.27z" />
						<path id="Path" class="shp0" d="M33.26,29.51c0.09,-0.16 0.09,-0.35 0,-0.51l-0.97,-1.55c-0.08,-0.13 -0.22,-0.22 -0.37,-0.24l-3.33,-0.44l2.72,-1.6c0.17,-0.1 0.27,-0.29 0.25,-0.49c-0.26,-2.91 -0.2,-6.95 1.55,-9.67c2.53,-3.93 8.53,-4.84 10.11,-5.01c0.5,1.51 2.16,7.34 -0.38,11.28c-1.74,2.71 -5.38,4.43 -8.12,5.4c-0.24,0.12 -0.35,0.39 -0.26,0.64c0.09,0.25 0.35,0.39 0.6,0.33c2.88,-1.02 6.75,-2.87 8.64,-5.82c3.2,-4.97 0.47,-12.26 0.35,-12.57c-0.08,-0.21 -0.29,-0.35 -0.52,-0.33c-0.33,0.02 -8.11,0.55 -11.3,5.52c-1.84,2.86 -1.98,6.95 -1.74,9.99l-3.73,2.2c-0.19,0.11 -0.29,0.33 -0.24,0.55c0.04,0.22 0.22,0.38 0.44,0.41l4.58,0.61l0.84,1.34c0.09,0.15 0.26,0.24 0.44,0.24c0.18,0 0.35,-0.1 0.44,-0.26z" />
						<path id="Path" class="shp0" d="M35.21,29.31l0.21,-2.11c0.02,-0.18 -0.06,-0.37 -0.21,-0.47c-0.15,-0.11 -0.35,-0.13 -0.52,-0.05c-0.17,0.08 -0.28,0.24 -0.3,0.42l-0.21,2.1c-0.01,0.14 0.03,0.27 0.11,0.38c0.09,0.11 0.21,0.17 0.35,0.19h0.05c0.27,0 0.5,-0.2 0.52,-0.47z" />
						<path id="Path" class="shp0" d="M33.95,21.78c0.16,-2.43 0.7,-4.39 1.62,-5.82c0.14,-0.24 0.06,-0.54 -0.17,-0.69c-0.23,-0.15 -0.54,-0.09 -0.7,0.13c-1.02,1.58 -1.62,3.72 -1.78,6.31c-0.01,0.14 0.04,0.27 0.13,0.38c0.09,0.1 0.22,0.17 0.36,0.17h0.04c0.27,0 0.49,-0.21 0.51,-0.48z" />
						<path id="Path" class="shp0" d="M44.54,18.55c0.25,0 0.46,-0.18 0.51,-0.42c0.05,-0.24 -0.09,-0.49 -0.32,-0.58l-1.51,-0.61c-2.34,-0.94 -4.48,-2.31 -6.31,-4.05l-1.15,-1.12c-0.21,-0.2 -0.53,-0.19 -0.73,0.02c-0.2,0.21 -0.19,0.53 0.02,0.73l1.17,1.12c1.92,1.83 4.16,3.27 6.62,4.26l1.51,0.61c0.06,0.02 0.13,0.04 0.19,0.04z" />
						<path id="Oval" class="shp0" d="M40.25,13.17c0.23,-0.36 0.13,-0.84 -0.23,-1.07c-0.36,-0.23 -0.84,-0.13 -1.07,0.23c-0.23,0.36 -0.13,0.84 0.23,1.07c0.36,0.23 0.84,0.13 1.07,-0.23z" />
						<path id="Path" class="shp0" d="M28.69,15.14c2.22,-0.29 4.23,-2.31 4.99,-5.02c0.6,-2.02 0.3,-4.2 -0.83,-5.98c0.06,-0.11 0.11,-0.22 0.14,-0.34c0.19,-0.66 0.1,-1.36 -0.24,-1.95c-0.68,-1.24 -2.24,-1.71 -3.49,-1.03c-0.6,0.33 -1.03,0.88 -1.21,1.54c-0.04,0.05 -0.04,0.1 -0.04,0.15c-1.84,0.68 -3.41,2.56 -4.06,4.86c-0.77,2.74 -0.07,5.62 1.71,7c0.23,0.18 0.55,0.14 0.73,-0.09c0.18,-0.23 0.13,-0.55 -0.09,-0.73c-1.45,-1.13 -2,-3.55 -1.34,-5.9c0.57,-2.09 2,-3.72 3.62,-4.24c0.24,-0.05 0.41,-0.27 0.41,-0.52c0.01,-0.09 0.03,-0.17 0.05,-0.26c0.11,-0.39 0.37,-0.72 0.73,-0.91c0.36,-0.19 0.78,-0.24 1.17,-0.12c0.82,0.23 1.3,1.08 1.07,1.9c-0.02,0.05 -0.04,0.1 -0.07,0.14c-0.11,0.17 -0.17,0.36 -0.18,0.55c0,0.11 0.04,0.23 0.11,0.32c1.07,1.57 1.37,3.53 0.82,5.35c-0.65,2.28 -2.35,4.03 -4.14,4.27c-0.29,0.02 -0.5,0.27 -0.48,0.55c0.02,0.29 0.27,0.5 0.55,0.48z" />
						<path id="Path" class="shp0" d="M29.04,15.37c0.06,-0.22 0.09,-0.46 0.07,-0.69v-0.09c-0.05,-0.27 -0.3,-0.46 -0.57,-0.43c-0.14,0.02 -0.27,0.09 -0.35,0.2c-0.08,0.11 -0.12,0.26 -0.1,0.4c0.03,0.42 -0.23,0.81 -0.63,0.96c-0.4,0.15 -0.85,0.01 -1.1,-0.33c-0.25,-0.34 -0.25,-0.81 0.01,-1.15c0.11,-0.15 0.13,-0.34 0.06,-0.51c-0.07,-0.17 -0.23,-0.29 -0.41,-0.31c-0.18,-0.02 -0.36,0.06 -0.48,0.2c-0.45,0.61 -0.52,1.41 -0.18,2.09c0.34,0.67 1.03,1.1 1.79,1.09c0.88,-0.01 1.64,-0.59 1.89,-1.43z" />
						<path id="Path" class="shp0" d="M26.37,12.05c0.14,-0.03 0.25,-0.11 0.33,-0.22c0.08,-0.11 0.1,-0.25 0.08,-0.39c-0.38,-2.12 0.22,-4.3 1.63,-5.93c0.12,-0.14 0.16,-0.33 0.11,-0.51c-0.06,-0.18 -0.2,-0.31 -0.39,-0.35c-0.18,-0.04 -0.37,0.02 -0.49,0.16c-1.63,1.87 -2.33,4.39 -1.88,6.83c0.05,0.24 0.27,0.42 0.52,0.41z" />
						<path id="Path" class="shp0" d="M4.65,20.2c0.28,-0.06 0.45,-0.34 0.39,-0.62c-0.18,-0.8 0.1,-1.63 0.73,-2.15c0.63,-0.52 1.5,-0.64 2.25,-0.32c0.75,0.33 1.25,1.04 1.3,1.86c0.02,0.29 0.27,0.5 0.55,0.48c0.29,-0.02 0.5,-0.27 0.48,-0.55c-0.1,-1.18 -0.85,-2.21 -1.94,-2.67c-1.09,-0.46 -2.35,-0.29 -3.27,0.46c-0.92,0.75 -1.35,1.94 -1.12,3.11c0.05,0.24 0.27,0.41 0.52,0.41z" />
						<path id="Path" class="shp0" d="M1.16,24.33c0.2,0 0.39,-0.12 0.47,-0.3c0.08,-0.19 0.05,-0.4 -0.08,-0.55c-0.68,-0.8 -0.7,-1.97 -0.04,-2.78c0.66,-0.81 1.81,-1.04 2.73,-0.53c0.16,0.09 0.36,0.09 0.52,0c0.16,-0.09 0.26,-0.27 0.26,-0.45c0,-0.19 -0.1,-0.36 -0.26,-0.45c-1.36,-0.76 -3.06,-0.43 -4.04,0.78c-0.98,1.21 -0.95,2.94 0.06,4.11c0.1,0.11 0.24,0.18 0.39,0.18z" />
						<path id="Path" class="shp0" d="M3.39,28.52c1.61,0 2.97,-1.2 3.17,-2.8c0.02,-0.18 -0.05,-0.37 -0.2,-0.48c-0.15,-0.11 -0.35,-0.14 -0.52,-0.06c-0.17,0.07 -0.29,0.23 -0.31,0.42c-0.11,0.9 -0.76,1.63 -1.64,1.84c-0.88,0.21 -1.79,-0.14 -2.3,-0.88c-0.51,-0.75 -0.5,-1.73 0.02,-2.47c0.14,-0.15 0.18,-0.37 0.1,-0.56c-0.08,-0.19 -0.26,-0.31 -0.47,-0.31c-0.2,0 -0.39,0.12 -0.48,0.3c-0.68,0.98 -0.75,2.25 -0.2,3.31c0.55,1.05 1.64,1.72 2.83,1.72z" />
						<path id="Path" class="shp0" d="M11.43,22.69c1.17,0 2.18,-0.81 2.44,-1.95c0.26,-1.14 -0.31,-2.31 -1.36,-2.82c-1.05,-0.51 -2.32,-0.22 -3.05,0.7c-0.18,0.22 -0.14,0.55 0.09,0.73c0.22,0.18 0.55,0.14 0.73,-0.09c0.38,-0.47 1,-0.67 1.58,-0.49c0.58,0.17 0.99,0.68 1.04,1.28c0.05,0.6 -0.27,1.17 -0.81,1.44c-0.26,0.14 -0.55,0.2 -0.84,0.18c-0.18,-0.02 -0.37,0.06 -0.48,0.21c-0.11,0.15 -0.13,0.35 -0.05,0.52c0.08,0.17 0.24,0.29 0.42,0.31h0.26z" />
						<path id="Path" class="shp0" d="M5.13,24.49c0.84,0 1.63,-0.42 2.09,-1.13c0.16,-0.24 0.09,-0.56 -0.14,-0.72c-0.24,-0.16 -0.56,-0.09 -0.72,0.14c-0.3,0.45 -0.83,0.7 -1.37,0.65c-0.54,-0.05 -1.01,-0.4 -1.22,-0.9c-0.11,-0.26 -0.42,-0.39 -0.68,-0.28c-0.26,0.11 -0.39,0.42 -0.28,0.68c0.39,0.94 1.3,1.55 2.32,1.55z" />
						<path id="Path" class="shp0" d="M8.76,29.77c0.2,0 0.37,-0.11 0.46,-0.29c0.09,-0.17 0.07,-0.38 -0.05,-0.54l-2.69,-3.54c-0.11,-0.16 -0.29,-0.24 -0.48,-0.22c-0.19,0.02 -0.35,0.14 -0.42,0.32c-0.07,0.18 -0.04,0.38 0.08,0.52l2.7,3.54c0.1,0.13 0.25,0.21 0.41,0.21z" />
						<path id="Path" class="shp0" d="M11.5,29.66l1.85,-0.93c0.22,-0.11 0.33,-0.37 0.26,-0.62l-1.87,-6.01c-0.09,-0.26 -0.37,-0.41 -0.64,-0.33c-0.27,0.08 -0.42,0.36 -0.35,0.63l1.74,5.6l-1.45,0.73c-0.21,0.11 -0.31,0.35 -0.26,0.58c0.06,0.23 0.26,0.39 0.49,0.39c0.08,0 0.16,-0.02 0.23,-0.05z" />
						<path id="Path" class="shp0" d="M11.27,29.71c0.18,0 0.35,-0.09 0.44,-0.25c0.09,-0.15 0.1,-0.34 0.02,-0.5l-2.09,-4.14c-0.08,-0.17 -0.25,-0.27 -0.43,-0.28c-0.18,-0.01 -0.36,0.08 -0.46,0.23c-0.1,0.15 -0.11,0.35 -0.03,0.52l2.09,4.14c0.09,0.17 0.27,0.28 0.46,0.28z" />
						<path id="Oval Copy" class="shp1" d="M16.81,26.36c0.71,0 1.29,-0.58 1.29,-1.29c0,-0.71 -0.58,-1.29 -1.29,-1.29c-0.71,0 -1.29,0.58 -1.29,1.29c0,0.71 0.58,1.29 1.29,1.29z" />
						<path id="Oval Copy 2" class="shp1" d="M27.15,22.22c0.71,0 1.29,-0.58 1.29,-1.29c0,-0.71 -0.58,-1.29 -1.29,-1.29c-0.71,0 -1.29,0.58 -1.29,1.29c0,0.71 0.58,1.29 1.29,1.29z" />
						<path id="Oval Copy 3" class="shp1" d="M38.02,6.19c0.71,0 1.29,-0.58 1.29,-1.29c0,-0.71 -0.58,-1.29 -1.29,-1.29c-0.71,0 -1.29,0.58 -1.29,1.29c0,0.71 0.58,1.29 1.29,1.29z" />
						<path id="Shape" class="shp0" d="M36.14,4.86c0,-1.1 0.89,-1.99 1.99,-1.99c1.1,0 1.99,0.89 1.99,1.99c0,1.1 -0.89,1.98 -1.99,1.99c-1.1,0 -1.99,-0.89 -1.99,-1.99zM38.13,3.91c-0.53,0 -0.95,0.43 -0.95,0.95c0,0.53 0.43,0.95 0.95,0.95c0.53,0 0.95,-0.43 0.95,-0.95c0,-0.53 -0.43,-0.95 -0.95,-0.95z" />
						<path id="Shape" class="shp0" d="M27.04,22.62c-1.1,0 -1.99,-0.89 -1.99,-1.99c0,-1.1 0.89,-1.99 1.99,-1.99c1.1,0 1.99,0.89 1.99,1.99c0,1.1 -0.89,1.98 -1.99,1.99zM27.04,19.68c-0.53,0 -0.95,0.43 -0.95,0.95c0,0.53 0.43,0.95 0.95,0.95c0.53,0 0.95,-0.43 0.95,-0.95c0,-0.53 -0.43,-0.95 -0.95,-0.95z" />
						<path id="Shape" class="shp0" d="M14.77,25.58c-0.31,-0.74 -0.14,-1.6 0.43,-2.16c0.57,-0.57 1.42,-0.74 2.16,-0.43c0.74,0.31 1.23,1.03 1.23,1.84c0,1.1 -0.89,1.98 -1.99,1.99c-0.8,0 -1.53,-0.48 -1.84,-1.23zM15.65,24.82c0,0.53 0.43,0.95 0.95,0.95c0.53,0 0.95,-0.43 0.95,-0.95c0,-0.53 -0.43,-0.95 -0.95,-0.95c-0.53,0 -0.95,0.43 -0.95,0.95z" />
						<path id="Oval" class="shp1" d="M3.36,14.47c0.71,0 1.29,-0.58 1.29,-1.29c0,-0.71 -0.58,-1.29 -1.29,-1.29c-0.71,0 -1.29,0.58 -1.29,1.29c0,0.71 0.58,1.29 1.29,1.29z" />
						<path id="Shape" class="shp0" d="M1.4,12.97c0.01,-1.09 0.9,-1.98 1.99,-1.98c1.1,0 1.98,0.89 1.98,1.99c0,0.53 -0.21,1.04 -0.59,1.41c-0.38,0.37 -0.88,0.58 -1.41,0.58c-1.1,-0.01 -1.98,-0.9 -1.97,-2zM2.43,12.99c0.01,0.52 0.43,0.94 0.96,0.94c0.52,0 0.95,-0.43 0.95,-0.95c0,-0.26 -0.1,-0.5 -0.28,-0.68c-0.18,-0.18 -0.43,-0.28 -0.68,-0.27c-0.52,0.01 -0.94,0.44 -0.94,0.96z" />
						<path id="Shape" class="shp0" d="M22.44,45.29c-10.66,0 -18.1,-6.59 -18.1,-16.03c0,-0.29 0.23,-0.52 0.52,-0.52h35.17c0.29,0 0.52,0.23 0.52,0.52c0,9.44 -7.44,16.03 -18.1,16.03zM5.37,29.77c0.26,8.68 7.05,14.48 17.07,14.48c10.01,0 16.8,-5.8 17.07,-14.48z" />
						<path id="Path" class="shp0" d="M9.84,35.57c0.19,0 0.36,-0.11 0.45,-0.27c0.09,-0.17 0.08,-0.37 -0.02,-0.53c-0.17,-0.25 -0.33,-0.52 -0.48,-0.78c-0.14,-0.25 -0.46,-0.33 -0.71,-0.19c-0.25,0.14 -0.33,0.46 -0.19,0.71c0.17,0.29 0.34,0.57 0.52,0.84c0.1,0.14 0.26,0.23 0.43,0.23z" />
						<path id="Path" class="shp0" d="M15.63,40.59c0.24,0 0.44,-0.17 0.5,-0.4c0.06,-0.23 -0.06,-0.47 -0.27,-0.58c-0.34,-0.17 -0.61,-0.32 -1,-0.55c-0.39,-0.23 -0.77,-0.48 -1.13,-0.74c-0.62,-0.45 -1.21,-0.95 -1.75,-1.49l-0.2,-0.19c-0.11,-0.11 -0.22,-0.22 -0.32,-0.35c-0.18,-0.22 -0.51,-0.25 -0.73,-0.06c-0.22,0.18 -0.25,0.51 -0.06,0.73c0.12,0.15 0.25,0.29 0.39,0.42l0.18,0.18c0.58,0.58 1.21,1.12 1.88,1.6c0.39,0.28 0.89,0.59 1.21,0.8c0.32,0.21 0.67,0.4 1.03,0.58c0.07,0.04 0.15,0.06 0.23,0.06z" />
						<path id="Path" class="shp0" d="M40.02,32.36c0,-0.29 -0.23,-0.52 -0.52,-0.52h-34.14c-0.29,0 -0.52,0.23 -0.52,0.52c0,0.29 0.23,0.52 0.52,0.52h34.14c0.29,0 0.52,-0.23 0.52,-0.52z" />
					</g>
				</g>
			</g>
		</g>
	</g>
</svg>