<svg xmlns="http://www.w3.org/2000/svg" viewBox="0 0 60 60" width="60" height="60">
	<defs>
		<clipPath clipPathUnits="userSpaceOnUse" id="cp1">
			<path d="M-309 -317L651 -317L651 2050L-309 2050Z" />
		</clipPath>
	</defs>
	<style>
		tspan { white-space:pre }
		.shp0 { fill: #fffffe } 
		.shp1 { fill: #ff4fa9;stroke: #ff4fa9;stroke-width: 0.25 } 
		.shp2 { fill: #ffcbba;stroke: #ff4fa9;stroke-width: 0.25 } 
	</style>
	<g id="welness 1" clip-path="url(#cp1)">
		<g id="block 1">
			<g id="categories">
				<g id="shopping">
					<g id="-e-ic_shopping">
						<path id="Fill 25 Copy" class="shp0" d="M0,59.62h59.62v-59.62h-59.62z" />
						<path id="Fill 151 Copy" class="shp1" d="M32.14,8.33l-0.19,0.06c-0.62,0.06 -1.18,0.31 -1.62,0.81c-0.43,0.5 -0.68,1.12 -0.68,1.8c0,0.06 0,0.19 0,0.25l1.31,12.74h0.75l-1.31,-12.8v-0.19c0,-0.5 0.19,-0.93 0.5,-1.31c0.31,-0.31 0.68,-0.56 1.12,-0.62h14.61c0.44,0.06 0.81,0.31 1.12,0.62c0.31,0.37 0.5,0.81 0.5,1.31v0.19l-2.74,27.42h-6.22v0.75h6.53c0.19,0 0.37,-0.12 0.37,-0.31l2.74,-27.79l0.06,-0.25c0,-0.69 -0.31,-1.31 -0.68,-1.8c-0.44,-0.43 -1,-0.75 -1.62,-0.81l-0.19,-0.06z" />
						<path id="Fill 152 Copy" class="shp1" d="M30.34,14.24h17.97c0.25,0 0.37,-0.19 0.37,-0.37c0,-0.19 -0.12,-0.37 -0.37,-0.37h-17.97c-0.25,0 -0.37,0.19 -0.37,0.37c0,0.19 0.12,0.37 0.37,0.37" />
						<path id="Fill 153 Copy" class="shp1" d="M39.29,38.61v0.75h6.15l-0.5,4.23c0,0.19 -0.06,0.37 -0.19,0.5c-0.06,0.06 -0.19,0.12 -0.25,0.12h-5.22v0.75h5.22c0.31,0 0.62,-0.12 0.81,-0.37c0.19,-0.25 0.37,-0.62 0.37,-0.93l0.5,-4.66c0,-0.19 -0.12,-0.37 -0.37,-0.37h-6.53" />
						<path id="Fill 154 Copy" class="shp1" d="M39.29,18.59c-1.43,0 -2.73,0.62 -3.67,1.55c-0.99,0.93 -1.55,2.3 -1.55,3.73v0.12h0.75v-0.12c0,-1.24 0.5,-2.36 1.31,-3.17c0.81,-0.81 1.93,-1.37 3.17,-1.37c1.24,0 2.42,0.56 3.23,1.37c0.81,0.81 1.31,1.93 1.31,3.17c0,1.24 -0.5,2.36 -1.31,3.17c-0.81,0.81 -1.99,1.3 -3.23,1.3c-0.93,0 -1.8,-0.25 -2.49,-0.75v0.87c0.75,0.43 1.62,0.62 2.49,0.62c1.49,0 2.8,-0.56 3.73,-1.49c0.93,-1 1.55,-2.3 1.55,-3.73c0,-1.43 -0.62,-2.8 -1.55,-3.73c-0.93,-0.93 -2.24,-1.55 -3.73,-1.55" />
						<path id="Fill 155 Copy" class="shp1" d="M32.33,8.7v3.11c0,0.19 0.19,0.37 0.37,0.37c0.19,0 0.37,-0.19 0.37,-0.37v-3.11c0,-0.19 -0.19,-0.37 -0.37,-0.37c-0.19,0 -0.37,0.19 -0.37,0.37" />
						<path id="Fill 156 Copy" class="shp1" d="M34.94,8.7v3.11c0,0.19 0.19,0.37 0.37,0.37c0.25,0 0.37,-0.19 0.37,-0.37v-3.11c0,-0.19 -0.12,-0.37 -0.37,-0.37c-0.19,0 -0.37,0.19 -0.37,0.37" />
						<path id="Fill 157 Copy" class="shp1" d="M37.61,8.7v3.11c0,0.19 0.19,0.37 0.37,0.37c0.19,0 0.37,-0.19 0.37,-0.37v-3.11c0,-0.19 -0.19,-0.37 -0.37,-0.37c-0.19,0 -0.37,0.19 -0.37,0.37" />
						<path id="Fill 158 Copy" class="shp1" d="M40.28,8.7v3.11c0,0.19 0.12,0.37 0.37,0.37c0.19,0 0.37,-0.19 0.37,-0.37v-3.11c0,-0.19 -0.19,-0.37 -0.37,-0.37c-0.25,0 -0.37,0.19 -0.37,0.37" />
						<path id="Fill 159 Copy" class="shp1" d="M42.89,8.7v3.11c0,0.19 0.19,0.37 0.37,0.37c0.25,0 0.37,-0.19 0.37,-0.37v-3.11c0,-0.19 -0.12,-0.37 -0.37,-0.37c-0.19,0 -0.37,0.19 -0.37,0.37" />
						<path id="Fill 160 Copy" class="shp1" d="M45.57,8.7v3.11c0,0.19 0.19,0.37 0.37,0.37c0.19,0 0.37,-0.19 0.37,-0.37v-3.11c0,-0.19 -0.19,-0.37 -0.37,-0.37c-0.19,0 -0.37,0.19 -0.37,0.37" />
						<path id="Fill 161 Copy" class="shp2" d="M43.33,44.57c0,-0.19 -0.19,-0.37 -0.37,-0.37h-3.67l-0.19,5.53c-0.12,0.31 -0.37,0.56 -0.62,0.75h3.05c0.5,0 0.99,-0.31 1.31,-0.75c0.31,-0.43 0.5,-0.99 0.5,-1.61z" />
						<path id="Fill 161 Copy" class="shp1" d="M43.33,44.57c0,-0.19 -0.19,-0.37 -0.37,-0.37h-3.67v0.75h3.3v3.17c0,0.5 -0.12,0.87 -0.37,1.18c-0.19,0.25 -0.43,0.43 -0.68,0.43h-2.42c-0.12,0.31 -0.37,0.56 -0.62,0.75h3.05c0.5,0 0.99,-0.31 1.31,-0.75c0.31,-0.43 0.5,-0.99 0.5,-1.61v-3.54" />
						<path id="Fill 162 Copy" class="shp1" d="M38.42,30.77l0.06,0.06c0.25,0.25 0.44,0.68 0.44,1.12v16.91c0,0.44 -0.19,0.87 -0.5,1.12c-0.25,0.31 -0.68,0.5 -1.12,0.5h-24.25c-0.5,0 -0.87,-0.19 -1.18,-0.5c-0.31,-0.31 -0.5,-0.68 -0.5,-1.12v-16.91c0,-0.44 0.19,-0.87 0.5,-1.18c0.31,-0.25 0.68,-0.43 1.18,-0.43h24.25c0.44,0 0.87,0.19 1.12,0.43zM13.05,29.53c-0.68,0 -1.31,0.25 -1.74,0.75c-0.43,0.43 -0.68,0.99 -0.68,1.68v16.91c0,0.62 0.25,1.24 0.68,1.68c0.43,0.43 1.06,0.75 1.74,0.75h24.25c0.68,0 1.24,-0.31 1.68,-0.75c0.43,-0.43 0.75,-1.06 0.75,-1.68v-16.91c0,-0.68 -0.31,-1.24 -0.68,-1.68l-0.06,-0.06c-0.44,-0.43 -0.99,-0.68 -1.68,-0.68z" />
						<path id="Fill 163 Copy" class="shp2" d="M15.23,23.62c-0.62,0 -1.12,0.31 -1.49,0.75c-0.37,0.44 -0.56,1.06 -0.56,1.68v3.85c0,0.25 0.12,0.43 0.37,0.43h23.25c0.19,0 0.37,-0.19 0.37,-0.43v-3.85c0,-0.62 -0.25,-1.24 -0.56,-1.68c-0.37,-0.43 -0.93,-0.75 -1.49,-0.75h-19.89z" />
						<path id="Fill 163 Copy" class="shp1" d="M35.99,24.87c0.25,0.31 0.37,0.75 0.37,1.18v3.48h-22.44v-3.48c0,-0.43 0.19,-0.87 0.43,-1.18c0.19,-0.31 0.5,-0.44 0.87,-0.44h19.89c0.31,0 0.62,0.13 0.87,0.44zM15.23,23.62c-0.62,0 -1.12,0.31 -1.49,0.75c-0.37,0.44 -0.56,1.06 -0.56,1.68v3.85c0,0.25 0.12,0.43 0.37,0.43h23.25c0.19,0 0.37,-0.19 0.37,-0.43v-3.85c0,-0.62 -0.25,-1.24 -0.56,-1.68c-0.37,-0.43 -0.93,-0.75 -1.49,-0.75z" />
						<path id="Fill 164 Copy" class="shp1" d="M14.92,47.56c-0.31,0 -0.56,-0.12 -0.75,-0.31c-0.19,-0.19 -0.31,-0.43 -0.31,-0.75v-12.18c0,-0.31 0.12,-0.56 0.31,-0.75c0.19,-0.19 0.44,-0.31 0.75,-0.31c0.19,0 0.37,-0.19 0.37,-0.43c0,-0.19 -0.19,-0.37 -0.37,-0.37c-0.5,0 -0.99,0.19 -1.31,0.56c-0.37,0.31 -0.56,0.81 -0.56,1.31v12.18c0,0.5 0.19,0.93 0.56,1.31c0.31,0.31 0.81,0.56 1.31,0.56c0.19,0 0.37,-0.19 0.37,-0.43c0,-0.19 -0.19,-0.37 -0.37,-0.37" />
						<path id="Fill 165 Copy" class="shp1" d="M35.44,48.37c0.5,0 0.93,-0.25 1.31,-0.56c0.31,-0.37 0.5,-0.81 0.5,-1.31v-12.18c0,-0.5 -0.19,-1 -0.5,-1.31c-0.37,-0.37 -0.81,-0.56 -1.31,-0.56c-0.25,0 -0.44,0.19 -0.44,0.37c0,0.25 0.19,0.43 0.44,0.43c0.25,0 0.56,0.12 0.75,0.31c0.19,0.19 0.31,0.44 0.31,0.75v12.18c0,0.25 -0.13,0.56 -0.31,0.75c-0.19,0.19 -0.5,0.31 -0.75,0.31c-0.25,0 -0.44,0.19 -0.44,0.37c0,0.25 0.19,0.43 0.44,0.43" />
					</g>
				</g>
			</g>
		</g>
	</g>
</svg>