<svg xmlns="http://www.w3.org/2000/svg" viewBox="0 0 61 61" width="61" height="61">
	<defs>
		<clipPath clipPathUnits="userSpaceOnUse" id="cp1">
			<path d="M-311 -139L649 -139L649 2228L-311 2228Z" />
		</clipPath>
	</defs>
	<style>
		tspan { white-space:pre }
		.shp0 { fill: transparent } 
		.shp1 { fill: #fff;stroke: #fff;stroke-width: 1 } 
		.shp2 { fill: #fff;stroke: #fff;stroke-width: 1 } 
	</style>
	<g id="welness 1" clip-path="url(#cp1)">
		<g id="block 1">
			<g id="categories">
				<g id="SPA">
					<g id="-e-ic_SPA">
						<path id="Fill 6 Copy" class="shp0" d="M0.5,60.62h59.62v-59.62h-59.62z" />
						<path id="Fill 37 Copy" class="shp1" d="M51.23,35.38c0,2.3 -0.93,4.35 -2.49,5.91c-1.49,1.49 -3.54,2.42 -5.84,2.42h-25.12c-2.3,0 -4.41,-0.93 -5.91,-2.42c-1.49,-1.56 -2.42,-3.61 -2.42,-5.91v-8.33h41.78zM9.08,26.3c-0.25,0 -0.37,0.19 -0.37,0.37v8.7c0,2.49 0.99,4.79 2.67,6.4c1.62,1.68 3.92,2.67 6.4,2.67h25.12c2.49,0 4.72,-0.99 6.4,-2.67c1.61,-1.62 2.67,-3.92 2.67,-6.4v-8.7c0,-0.19 -0.19,-0.37 -0.37,-0.37z" />
						<path id="Fill 38 Copy" class="shp1" d="M51.6,47.5l-2.49,-5.53c-0.19,0.19 -0.44,0.37 -0.69,0.56c-0.31,0.25 -0.62,0.5 -0.99,0.68l2.3,5.1zM49.61,41.16l2.8,6.4c0.12,0.19 0,0.37 -0.19,0.44l-2.55,1.18c-0.19,0.06 -0.37,0 -0.5,-0.19l-2.55,-5.78c-0.06,-0.19 0,-0.44 0.19,-0.5c0.44,-0.25 0.81,-0.5 1.18,-0.75c0.37,-0.31 0.68,-0.62 1,-0.93c0.12,-0.12 0.37,-0.19 0.5,0c0.06,0 0.12,0.06 0.12,0.12zM8.21,47.56l2.86,-6.4c0,-0.06 0,-0.12 0.06,-0.12c0.13,-0.19 0.37,-0.12 0.5,0c0.31,0.31 0.68,0.62 1.06,0.93c0.37,0.25 0.75,0.5 1.12,0.75c0.19,0.06 0.25,0.31 0.19,0.5l-2.55,5.78c-0.06,0.19 -0.31,0.25 -0.5,0.19l-2.55,-1.18c-0.19,-0.06 -0.25,-0.25 -0.19,-0.44zM9.08,47.5l1.86,0.81l2.24,-5.1c-0.31,-0.19 -0.62,-0.44 -0.93,-0.68c-0.25,-0.19 -0.5,-0.37 -0.75,-0.56z" />
						<path id="Fill 39 Copy" class="shp1" d="M47.19,31.52v3.85c0,1.86 -0.75,3.54 -1.99,4.72c-1.18,1.18 -2.86,1.93 -4.66,1.93c-0.25,0 -0.37,0.19 -0.37,0.37c0,0.25 0.12,0.37 0.37,0.37c1.99,0 3.85,-0.81 5.22,-2.18c1.31,-1.31 2.18,-3.17 2.18,-5.22v-3.85c0,-0.19 -0.19,-0.37 -0.37,-0.37c-0.19,0 -0.37,0.19 -0.37,0.37" />
						<path id="Fill 40 Copy" class="shp1" d="M9.08,29.72h42.52c0.19,0 0.37,-0.19 0.37,-0.37c0,-0.19 -0.19,-0.37 -0.37,-0.37h-42.52c-0.25,0 -0.37,0.19 -0.37,0.37c0,0.19 0.12,0.37 0.37,0.37" />
						<path id="Fill 41 Copy" class="shp2" d="M22.45,21.58c-0.12,-0.93 -0.56,-1.74 -1.18,-2.36c-0.68,-0.68 -1.68,-1.06 -2.73,-1.06c-1.06,0 -1.99,0.37 -2.67,1.06c-0.68,0.62 -1.06,1.43 -1.18,2.36c-0.68,0.19 -1.31,0.5 -1.74,1.06c-0.43,0.5 -0.75,1.12 -0.87,1.8c-0.5,0.12 -0.99,0.31 -1.37,0.62c-0.5,0.37 -0.81,0.87 -1.06,1.49c0,0.06 0,0.06 0,0.12c0,0.25 0.12,0.37 0.37,0.37h17.1c0.06,0 0.06,0 0.12,0c0.19,-0.06 0.31,-0.31 0.25,-0.5c-0.25,-0.56 -0.62,-1.06 -1.06,-1.43c-0.37,-0.31 -0.81,-0.56 -1.31,-0.68c-0.12,-0.68 -0.43,-1.37 -0.87,-1.86c-0.5,-0.5 -1.12,-0.87 -1.8,-0.99z" />
						<path id="Fill 41 Copy" class="shp1" d="M24.37,24.75c0,0.19 0.12,0.37 0.31,0.37c0.5,0.06 0.93,0.25 1.24,0.56c0.25,0.19 0.44,0.37 0.56,0.62h-15.91c0.19,-0.25 0.37,-0.44 0.56,-0.62c0.37,-0.31 0.87,-0.5 1.37,-0.56c0.19,0 0.31,-0.19 0.31,-0.37c0,-0.62 0.25,-1.18 0.68,-1.62c0.37,-0.5 0.93,-0.81 1.56,-0.87c0.19,0 0.31,-0.19 0.31,-0.37c0.06,-0.81 0.43,-1.55 0.99,-2.11c0.56,-0.56 1.37,-0.87 2.18,-0.87c0.87,0 1.68,0.31 2.24,0.87c0.56,0.5 0.93,1.31 0.99,2.11c0,0.19 0.12,0.37 0.31,0.37c0.62,0.06 1.18,0.37 1.62,0.81c0.44,0.43 0.68,1.06 0.68,1.68zM22.45,21.58c-0.12,-0.93 -0.56,-1.74 -1.18,-2.36c-0.68,-0.68 -1.68,-1.06 -2.73,-1.06c-1.06,0 -1.99,0.37 -2.67,1.06c-0.68,0.62 -1.06,1.43 -1.18,2.36c-0.68,0.19 -1.31,0.5 -1.74,1.06c-0.43,0.5 -0.75,1.12 -0.87,1.8c-0.5,0.12 -0.99,0.31 -1.37,0.62c-0.5,0.37 -0.81,0.87 -1.06,1.49c0,0.06 0,0.06 0,0.12c0,0.25 0.12,0.37 0.37,0.37c0.06,0 17.16,0 17.22,0c0.19,-0.06 0.31,-0.31 0.25,-0.5c-0.25,-0.56 -0.62,-1.06 -1.06,-1.43c-0.37,-0.31 -0.81,-0.56 -1.31,-0.68c-0.12,-0.68 -0.43,-1.37 -0.87,-1.86c-0.5,-0.5 -1.12,-0.87 -1.8,-0.99z" />
						<path id="Fill 42 Copy" class="shp1" d="M24.75,14.18c0,0.31 -0.12,0.56 -0.31,0.75c-0.19,0.19 -0.43,0.31 -0.68,0.31c-0.31,0 -0.56,-0.12 -0.75,-0.31c-0.19,-0.19 -0.31,-0.44 -0.31,-0.75c0,-0.25 0.12,-0.5 0.31,-0.68c0.19,-0.19 0.43,-0.31 0.75,-0.31c0.25,0 0.5,0.12 0.68,0.31c0.19,0.19 0.31,0.43 0.31,0.68zM23.75,12.44c-0.5,0 -0.93,0.19 -1.31,0.5c-0.31,0.31 -0.5,0.75 -0.5,1.24c0,0.5 0.19,0.93 0.5,1.24c0.37,0.31 0.81,0.56 1.31,0.56c0.44,0 0.93,-0.25 1.24,-0.56c0.31,-0.31 0.5,-0.75 0.5,-1.24c0,-0.5 -0.19,-0.93 -0.5,-1.24c-0.31,-0.31 -0.81,-0.5 -1.24,-0.5z" />
						<path id="Fill 43 Copy" class="shp1" d="M29.22,19.34c0,0.25 -0.12,0.56 -0.31,0.75c-0.19,0.12 -0.44,0.25 -0.75,0.25c-0.31,0 -0.56,-0.12 -0.75,-0.25c-0.19,-0.19 -0.25,-0.5 -0.25,-0.75c0,-0.31 0.06,-0.56 0.25,-0.75h0.06c0.19,-0.19 0.44,-0.31 0.68,-0.31c0.31,0 0.56,0.12 0.75,0.31c0.19,0.19 0.31,0.44 0.31,0.75zM28.16,17.54c-0.5,0 -0.93,0.19 -1.24,0.5v0.06c-0.31,0.31 -0.5,0.75 -0.5,1.24c0,0.5 0.19,0.93 0.5,1.24c0.31,0.31 0.75,0.5 1.24,0.5c0.5,0 0.93,-0.19 1.24,-0.5c0.31,-0.31 0.56,-0.75 0.56,-1.24c0,-0.5 -0.25,-0.93 -0.56,-1.24c-0.31,-0.31 -0.75,-0.56 -1.24,-0.56z" />
						<path id="Fill 44 Copy" class="shp1" d="M34.94,15.79c0,0.25 -0.06,0.5 -0.25,0.68c-0.19,0.19 -0.43,0.31 -0.75,0.31c-0.31,0 -0.56,-0.12 -0.75,-0.31c-0.19,-0.19 -0.31,-0.44 -0.31,-0.68c0,-0.31 0.12,-0.56 0.31,-0.75c0.19,-0.19 0.43,-0.31 0.75,-0.31c0.31,0 0.56,0.12 0.75,0.31c0.19,0.19 0.25,0.44 0.25,0.75zM33.95,13.99c-0.5,0 -0.93,0.19 -1.24,0.56c-0.31,0.31 -0.5,0.75 -0.5,1.24c0,0.5 0.19,0.93 0.5,1.24c0.31,0.31 0.75,0.5 1.24,0.5c0.5,0 0.93,-0.19 1.24,-0.5c0.31,-0.31 0.5,-0.75 0.5,-1.24c0,-0.5 -0.19,-0.93 -0.5,-1.24c-0.31,-0.37 -0.75,-0.56 -1.24,-0.56z" />
						<path id="Fill 45 Copy" class="shp1" d="M29.28,15.3c0,0.19 -0.12,0.37 -0.25,0.5c-0.12,0.12 -0.31,0.19 -0.5,0.19c-0.19,0 -0.37,-0.06 -0.5,-0.19c-0.12,-0.12 -0.19,-0.31 -0.19,-0.5c0,-0.25 0.06,-0.37 0.19,-0.56c0.12,-0.12 0.31,-0.19 0.5,-0.19c0.19,0 0.37,0.06 0.5,0.19c0.12,0.19 0.25,0.31 0.25,0.56zM28.54,13.81c-0.37,0 -0.75,0.19 -0.99,0.43c-0.31,0.25 -0.44,0.62 -0.44,1.06c0,0.37 0.12,0.75 0.44,0.99c0.25,0.25 0.62,0.44 0.99,0.44c0.44,0 0.75,-0.19 1.06,-0.44c0.25,-0.25 0.44,-0.62 0.44,-0.99c0,-0.44 -0.19,-0.81 -0.44,-1.06c-0.31,-0.25 -0.62,-0.43 -1.06,-0.43z" />
					</g>
				</g>
			</g>
		</g>
	</g>
</svg>